<svg width="14" height="8" viewBox="0 0 14 8" fill="none" xmlns="http://www.w3.org/2000/svg">
<path d="M7.70996 7.54001L13.36 1.88001C13.4537 1.78705 13.5281 1.67645 13.5789 1.55459C13.6296 1.43273 13.6558 1.30202 13.6558 1.17001C13.6558 1.038 13.6296 0.907295 13.5789 0.785436C13.5281 0.663576 13.4537 0.552975 13.36 0.460012C13.1726 0.273761 12.9191 0.16922 12.655 0.16922C12.3908 0.16922 12.1373 0.273761 11.95 0.460012L6.94996 5.41001L1.99996 0.460012C1.8126 0.273761 1.55915 0.169219 1.29496 0.169219C1.03078 0.169219 0.777327 0.273761 0.589964 0.460012C0.495476 0.552627 0.420305 0.663072 0.368809 0.784947C0.317312 0.906822 0.290514 1.0377 0.289965 1.17001C0.290514 1.30232 0.317312 1.4332 0.368809 1.55508C0.420305 1.67695 0.495476 1.7874 0.589964 1.88001L6.23996 7.54001C6.3336 7.64152 6.44726 7.72253 6.57376 7.77793C6.70026 7.83334 6.83686 7.86194 6.97496 7.86194C7.11307 7.86194 7.24967 7.83334 7.37617 7.77793C7.50267 7.72253 7.61632 7.64152 7.70996 7.54001Z" fill="#4D5F7A"/>
</svg>
