<svg width="13" height="14" viewBox="0 0 13 14" fill="none" xmlns="http://www.w3.org/2000/svg">
<path d="M2.91667 6.33334H4.25V7.66668H2.91667V6.33334ZM12.25 3.00001V12.3333C12.25 13.0667 11.65 13.6667 10.9167 13.6667H1.58333C1.22971 13.6667 0.890573 13.5262 0.640524 13.2762C0.390476 13.0261 0.25 12.687 0.25 12.3333L0.256667 3.00001C0.256667 2.26668 0.843333 1.66668 1.58333 1.66668H2.25V0.333344H3.58333V1.66668H8.91667V0.333344H10.25V1.66668H10.9167C11.65 1.66668 12.25 2.26668 12.25 3.00001ZM1.58333 4.33334H10.9167V3.00001H1.58333V4.33334ZM10.9167 12.3333V5.66668H1.58333V12.3333H10.9167ZM8.25 7.66668H9.58333V6.33334H8.25V7.66668ZM5.58333 7.66668H6.91667V6.33334H5.58333V7.66668Z" fill="#858D9D"/>
</svg>
