<svg width="14" height="18" viewBox="0 0 14 18" fill="none" xmlns="http://www.w3.org/2000/svg">
<path d="M14 8.37525V15.8752C14 16.2068 13.8683 16.5247 13.6339 16.7591C13.3995 16.9936 13.0815 17.1252 12.75 17.1252H1.5C1.16848 17.1252 0.850537 16.9936 0.616116 16.7591C0.381696 16.5247 0.25 16.2068 0.25 15.8752V8.37525C0.25 8.04373 0.381696 7.72579 0.616116 7.49136C0.850537 7.25694 1.16848 7.12525 1.5 7.12525H3.375C3.54076 7.12525 3.69973 7.1911 3.81694 7.30831C3.93415 7.42552 4 7.58449 4 7.75025C4 7.91601 3.93415 8.07498 3.81694 8.19219C3.69973 8.3094 3.54076 8.37525 3.375 8.37525H1.5V15.8752H12.75V8.37525H10.875C10.7092 8.37525 10.5503 8.3094 10.4331 8.19219C10.3158 8.07498 10.25 7.91601 10.25 7.75025C10.25 7.58449 10.3158 7.42552 10.4331 7.30831C10.5503 7.1911 10.7092 7.12525 10.875 7.12525H12.75C13.0815 7.12525 13.3995 7.25694 13.6339 7.49136C13.8683 7.72579 14 8.04373 14 8.37525ZM4.44219 5.06744L6.5 3.00884V10.2502C6.5 10.416 6.56585 10.575 6.68306 10.6922C6.80027 10.8094 6.95924 10.8752 7.125 10.8752C7.29076 10.8752 7.44973 10.8094 7.56694 10.6922C7.68415 10.575 7.75 10.416 7.75 10.2502V3.00884L9.80781 5.06744C9.92509 5.18471 10.0841 5.2506 10.25 5.2506C10.4159 5.2506 10.5749 5.18471 10.6922 5.06744C10.8095 4.95016 10.8753 4.7911 10.8753 4.62525C10.8753 4.4594 10.8095 4.30034 10.6922 4.18306L7.56719 1.05806C7.50914 0.99995 7.44021 0.95385 7.36434 0.922398C7.28846 0.890945 7.20713 0.874756 7.125 0.874756C7.04287 0.874756 6.96154 0.890945 6.88566 0.922398C6.80979 0.95385 6.74086 0.99995 6.68281 1.05806L3.55781 4.18306C3.44054 4.30034 3.37465 4.4594 3.37465 4.62525C3.37465 4.7911 3.44054 4.95016 3.55781 5.06744C3.67509 5.18471 3.83415 5.2506 4 5.2506C4.16585 5.2506 4.32491 5.18471 4.44219 5.06744Z" fill="#1F437A"/>
</svg>
