<svg width="14" height="17" viewBox="0 0 14 17" fill="none" xmlns="http://www.w3.org/2000/svg">
<path d="M14 7.50049V15.0005C14 15.332 13.8683 15.65 13.6339 15.8844C13.3995 16.1188 13.0815 16.2505 12.75 16.2505H1.5C1.16848 16.2505 0.850537 16.1188 0.616116 15.8844C0.381696 15.65 0.25 15.332 0.25 15.0005V7.50049C0.25 7.16897 0.381696 6.85103 0.616116 6.61661C0.850537 6.38219 1.16848 6.25049 1.5 6.25049H3.375C3.54076 6.25049 3.69973 6.31634 3.81694 6.43355C3.93415 6.55076 4 6.70973 4 6.87549C4 7.04125 3.93415 7.20022 3.81694 7.31743C3.69973 7.43464 3.54076 7.50049 3.375 7.50049H1.5V15.0005H12.75V7.50049H10.875C10.7092 7.50049 10.5503 7.43464 10.4331 7.31743C10.3158 7.20022 10.25 7.04125 10.25 6.87549C10.25 6.70973 10.3158 6.55076 10.4331 6.43355C10.5503 6.31634 10.7092 6.25049 10.875 6.25049H12.75C13.0815 6.25049 13.3995 6.38219 13.6339 6.61661C13.8683 6.85103 14 7.16897 14 7.50049ZM4.44219 4.19268L6.5 2.13409V9.37549C6.5 9.54125 6.56585 9.70022 6.68306 9.81744C6.80027 9.93464 6.95924 10.0005 7.125 10.0005C7.29076 10.0005 7.44973 9.93464 7.56694 9.81744C7.68415 9.70022 7.75 9.54125 7.75 9.37549V2.13409L9.80781 4.19268C9.92509 4.30996 10.0841 4.37584 10.25 4.37584C10.4159 4.37584 10.5749 4.30996 10.6922 4.19268C10.8095 4.0754 10.8753 3.91634 10.8753 3.75049C10.8753 3.58464 10.8095 3.42558 10.6922 3.3083L7.56719 0.183304C7.50914 0.125194 7.44021 0.0790945 7.36434 0.0476418C7.28846 0.0161891 7.20713 0 7.125 0C7.04287 0 6.96154 0.0161891 6.88566 0.0476418C6.80979 0.0790945 6.74086 0.125194 6.68281 0.183304L3.55781 3.3083C3.44054 3.42558 3.37465 3.58464 3.37465 3.75049C3.37465 3.91634 3.44054 4.0754 3.55781 4.19268C3.67509 4.30995 3.83415 4.37584 4 4.37584C4.16585 4.37584 4.32491 4.30996 4.44219 4.19268Z" fill="white"/>
</svg>
